<?xml version="1.0" encoding="UTF-8"?>
<svg width="50px" height="59px" viewBox="0 0 50 59" version="1.1" xmlns="http://www.w3.org/2000/svg" xmlns:xlink="http://www.w3.org/1999/xlink">
    <!-- Generator: Sketch 52.5 (67469) - http://www.bohemiancoding.com/sketch -->
    <title>Group Copy 3</title>
    <desc>Created with Sketch.</desc>
    <g id="Page-1" stroke="none" stroke-width="1" fill="none" fill-rule="evenodd">
        <g id="TrackThat-Landing-page" transform="translate(-1055.000000, -1052.000000)" fill-rule="nonzero">
            <g id="Group-Copy-3" transform="translate(1055.000000, 1052.000000)">
                <path d="M0.645046961,9.17885321 L0.645046961,57.9280366 C0.645046961,58.2938841 0.921495658,58.6597316 1.38224349,58.6597316 L39.255715,58.6597316 C39.6243133,58.6597316 39.9929116,58.385346 39.9929116,57.9280366 L39.9929116,20.7945123 C39.8086124,20.8859742 39.5321637,20.8859742 39.255715,20.8859742 L29.4878611,20.8859742 C28.3820663,20.8859742 27.3684211,19.9713553 27.3684211,18.7823509 L27.3684211,9.17885321 C27.3684211,8.90446756 27.4605706,8.7215438 27.4605706,8.44715815 L1.38224349,8.44715815 C1.01364522,8.53862003 0.645046961,8.81300568 0.645046961,9.17885321 Z M6.17402091,13.4775617 L18.6142123,13.4775617 C18.9828106,13.4775617 19.3514088,13.7519473 19.3514088,14.2092567 C19.3514088,14.5751043 19.0749601,14.9409518 18.6142123,14.9409518 L6.17402091,14.9409518 C5.80542265,14.9409518 5.43682438,14.6665662 5.43682438,14.2092567 C5.43682438,13.7519473 5.80542265,13.4775617 6.17402091,13.4775617 Z M6.17402091,18.9652746 L26.1704767,18.9652746 C26.539075,18.9652746 26.9076732,19.2396603 26.9076732,19.6969697 C26.9076732,20.1542791 26.6312245,20.4286648 26.1704767,20.4286648 L6.17402091,20.4286648 C5.80542265,20.4286648 5.43682438,20.1542791 5.43682438,19.6969697 C5.43682438,19.2396603 5.80542265,18.9652746 6.17402091,18.9652746 Z M6.17402091,25.2761445 L34.4639376,25.2761445 C34.8325359,25.2761445 35.2011341,25.5505302 35.2011341,26.0078396 C35.2011341,26.3736871 34.9246855,26.7395346 34.4639376,26.7395346 L6.17402091,26.7395346 C5.80542265,26.7395346 5.43682438,26.465149 5.43682438,26.0078396 C5.43682438,25.5505302 5.80542265,25.2761445 6.17402091,25.2761445 Z M6.17402091,32.0443238 L34.4639376,32.0443238 C34.8325359,32.0443238 35.2011341,32.3187095 35.2011341,32.7760189 C35.2011341,33.2333283 34.9246855,33.507714 34.4639376,33.507714 L6.17402091,33.507714 C5.80542265,33.507714 5.43682438,33.2333283 5.43682438,32.7760189 C5.43682438,32.3187095 5.80542265,32.0443238 6.17402091,32.0443238 Z M6.17402091,38.8125031 L34.4639376,38.8125031 C34.8325359,38.8125031 35.2011341,39.0868888 35.2011341,39.5441982 C35.2011341,39.9100457 34.9246855,40.2758933 34.4639376,40.2758933 L6.17402091,40.2758933 C5.80542265,40.2758933 5.43682438,40.0015076 5.43682438,39.5441982 C5.43682438,39.1783507 5.80542265,38.8125031 6.17402091,38.8125031 Z M6.17402091,45.5806824 L34.4639376,45.5806824 C34.8325359,45.5806824 35.2011341,45.8550681 35.2011341,46.3123775 C35.2011341,46.678225 34.9246855,47.0440726 34.4639376,47.0440726 L6.17402091,47.0440726 C5.80542265,47.0440726 5.43682438,46.7696869 5.43682438,46.3123775 C5.43682438,45.94653 5.80542265,45.5806824 6.17402091,45.5806824 Z M6.17402091,52.3488618 L34.4639376,52.3488618 C34.8325359,52.3488618 35.2011341,52.6232474 35.2011341,53.0805568 C35.2011341,53.4464043 34.9246855,53.8122519 34.4639376,53.8122519 L6.17402091,53.8122519 C5.80542265,53.8122519 5.43682438,53.5378662 5.43682438,53.0805568 C5.43682438,52.7147093 5.80542265,52.3488618 6.17402091,52.3488618 Z" id="Shape" fill="#4A90E2"></path>
                <path d="M39.900762,18.8738128 C39.900762,18.7823509 39.900762,18.7823509 39.900762,18.7823509 C39.900762,18.690889 39.8086124,18.5994271 39.7164629,18.5079652 C39.7164629,18.5079652 39.7164629,18.5079652 39.7164629,18.4165033 L29.9486089,8.7215438 C29.4878611,8.26423438 28.7506645,8.53862003 28.7506645,9.17885321 L28.7506645,18.8738128 C28.7506645,19.2396603 29.0271132,19.6055078 29.4878611,19.6055078 C39.255715,19.422584 39.8086124,20.0628172 39.900762,18.8738128 Z" id="Shape" fill="#4A90E2"></path>
                <path d="M38.6106681,12.471481 C37.5048733,12.471481 36.4912281,11.5568622 36.4912281,10.3678577 L36.4912281,0.764360018 C36.4912281,0.489974371 36.4912281,0.307050606 36.5833776,0.032664958 L10.5050505,0.032664958 C10.1364522,0.032664958 9.76785398,0.307050606 9.76785398,0.764360018 L9.76785398,7.16669179 C30.3172072,7.34961556 29.8564593,6.6179205 30.9622541,7.71546309 L40.9144072,17.5933464 L41.0065568,17.6848083 C41.5594542,18.5079652 41.3751551,16.2214182 41.3751551,50.1537766 L48.4706716,50.1537766 C48.8392699,50.1537766 49.2078682,49.8793909 49.2078682,49.4220815 L49.2078682,12.3800191 C49.023569,12.471481 48.7471203,12.471481 48.4706716,12.471481 L38.6106681,12.471481 Z" id="Shape" fill="#000000" opacity="0.47"></path>
                <path d="M48.8392699,9.91054827 L39.1635655,0.215588723 C38.7028177,-0.241720689 37.9656211,0.124126841 37.9656211,0.672898136 L37.9656211,10.3678577 C37.9656211,10.7337052 38.2420698,11.0995527 38.7028177,11.0995527 L48.4706716,11.0995527 C48.9314195,11.0995527 49.3000177,10.7337052 49.023569,10.0020102 C48.9314195,10.0020102 48.9314195,10.0020102 48.8392699,9.91054827 Z" id="Shape" fill="#000000" opacity="0.47"></path>
            </g>
        </g>
    </g>
</svg>