<?xml version="1.0" encoding="UTF-8"?>
<svg width="59px" height="60px" viewBox="0 0 59 60" version="1.1" xmlns="http://www.w3.org/2000/svg" xmlns:xlink="http://www.w3.org/1999/xlink">
    <!-- Generator: Sketch 52.5 (67469) - http://www.bohemiancoding.com/sketch -->
    <title>Group 130</title>
    <desc>Created with Sketch.</desc>
    <g id="Page-1" stroke="none" stroke-width="1" fill="none" fill-rule="evenodd">
        <g id="TrackThat-Landing-page" transform="translate(-331.000000, -1052.000000)" fill="#D12F2F" fill-rule="nonzero">
            <g id="Group-130" transform="translate(331.000000, 1052.000000)">
                <path d="M58.4206133,21.7658306 L52.0381133,17.9164556 C51.7381133,18.6420806 51.4006133,19.3827056 51.0424883,20.1327056 L56.5943633,23.4777056 L56.5943633,56.4533306 L44.9674883,49.4408306 L44.9674883,30.5970806 C44.0599883,31.9677056 43.2312383,33.1620806 42.5543633,34.1183306 L42.5543633,49.4408306 L30.9274883,56.4533306 L30.9274883,27.8783306 C30.1174883,26.5827056 29.2981133,25.2177056 28.5181133,23.8208306 L28.5181133,56.4533306 L16.8912383,49.4408306 L16.8912383,16.4670806 L28.2331133,23.3070806 C27.4906133,21.9552056 26.8006133,20.5939556 26.1931133,19.2608306 L16.3062383,13.2983306 L16.3062383,13.3020806 C16.2949883,13.2945806 16.2874883,13.2870806 16.2762383,13.2795806 C15.8956133,13.0677056 15.4306133,13.0733306 15.0574883,13.2983306 L1.02123827,21.7658306 C0.657488275,21.9833306 0.438113275,22.3752056 0.438113275,22.7989556 L0.438113275,58.5889556 C0.438113275,59.0239556 0.672488275,59.4233306 1.04936327,59.6389556 C1.23686327,59.7439556 1.43748827,59.7945806 1.64186327,59.7945806 C1.85748827,59.7945806 2.07311327,59.7383306 2.26436327,59.6220806 L15.6781133,51.5295806 L29.0956133,59.6220806 C29.2887383,59.7364556 29.5043633,59.7927056 29.7199883,59.7927056 C29.9243633,59.7927056 30.1268633,59.7420806 30.3124883,59.6370806 C30.3199883,59.6314556 30.3312383,59.6220806 30.3387383,59.6164556 L30.3424883,59.6202056 L43.7562383,51.5277056 L57.1737383,59.6202056 C57.3649883,59.7364556 57.5806133,59.7927056 57.7962383,59.7927056 C57.9968633,59.7927056 58.2031133,59.7420806 58.3887383,59.6370806 C58.7656133,59.4233306 58.9999883,59.0239556 58.9999883,58.5870806 L58.9999883,22.7989556 C59.0018633,22.3752056 58.7787383,21.9833306 58.4206133,21.7658306 Z M14.4743633,49.4408306 L2.84748827,56.4533306 L2.84748827,23.4777056 L14.4743633,16.4670806 L14.4743633,49.4408306 Z" id="Shape"></path>
                <path d="M50.3093633,11.810625 C50.3093633,5.2875 45.0218633,0 38.4987383,0 C31.9756133,0 26.6881133,5.2875 26.6881133,11.810625 C26.6881133,18.33375 38.4987383,34.355625 38.4987383,34.355625 C38.4987383,34.355625 50.3093633,18.331875 50.3093633,11.810625 Z M32.2962383,11.2125 C32.2962383,7.786875 35.0712383,5.008125 38.5006133,5.008125 C41.9299883,5.008125 44.7031133,7.786875 44.7031133,11.2125 C44.7031133,14.638125 41.9281133,17.416875 38.4987383,17.416875 C35.0693633,17.416875 32.2962383,14.64 32.2962383,11.2125 Z" id="Shape"></path>
            </g>
        </g>
    </g>
</svg>