<?xml version="1.0" encoding="UTF-8"?>
<svg width="60px" height="59px" viewBox="0 0 60 59" version="1.1" xmlns="http://www.w3.org/2000/svg" xmlns:xlink="http://www.w3.org/1999/xlink">
    <!-- Generator: Sketch 52.5 (67469) - http://www.bohemiancoding.com/sketch -->
    <title>Group 113</title>
    <desc>Created with Sketch.</desc>
    <g id="Page-1" stroke="none" stroke-width="1" fill="none" fill-rule="evenodd">
        <g id="TrackThat-Landing-page" transform="translate(-690.000000, -1052.000000)" fill="#F5A623">
            <g id="Group-113" transform="translate(690.000000, 1052.000000)">
                <path d="M42,16.00452 L42,11.99536 L39.38989,11.1311 C39.206022,10.5299537 38.9644406,9.94800081 38.66852,9.39337 L39.77722,7.05878 C38.9968894,5.96168948 38.038267,5.00308737 36.94116,4.22278 L34.60663,5.33148 C34.0519844,5.03559073 33.4700346,4.79401057 32.8689,4.61011 L32.00464,2 L27.99536,2 L27.1311,4.61011 L25.39355,5.33142 L23.05884,4.22266 C21.9617402,5.00295952 21.0031531,5.96158723 20.2229,7.05872 L21.33154,9.39337 L20.61011,11.1311 L18,11.99536 L18,16.00452 L20.61011,16.86871 L21.33148,18.60651 L20.22272,20.941 C21.0030543,22.0381245 21.961699,22.9967489 23.05884,23.77706 L25.39337,22.66842 C25.9480225,22.9642946 26.5299709,23.2058742 27.1311,23.38979 L27.99536,26 L32.00464,26 L32.8689,23.38983 C33.4700329,23.20595 34.0519827,22.9643899 34.60663,22.66852 L36.94116,23.77716 C38.0382717,22.9968984 38.9968617,22.0382882 39.7771,20.94116 L38.66846,18.60657 C38.9644271,18.0519293 39.2060296,17.4699506 39.38989,16.86877 L42,16.00452 Z M30,19.5 C26.9624339,19.5 24.5,17.0375661 24.5,14 C24.5,10.9624339 26.9624339,8.5 30,8.5 C33.0375661,8.5 35.5,10.9624339 35.5,14 C35.5,15.4586907 34.9205374,16.8576372 33.8890873,17.8890873 C32.8576372,18.9205374 31.4586907,19.5 30,19.5 Z" id="Shape" fill-rule="nonzero"></path>
                <path d="M16.27832,26.69238 C9.97020872,20.1108618 9.23142063,9.97448536 14.51855,2.54785 L11.16406,3.10645 L10.83594,1.13379 L16.83594,0.13379 C17.2610074,0.0628551543 17.6836988,0.272259589 17.8848027,0.653404266 C18.0859066,1.03454894 18.0201682,1.50166427 17.72168,1.8125 C11.4261068,8.37902133 11.4261068,18.7410987 17.72168,25.30762 L16.27832,26.69238 Z" id="Path"></path>
                <path d="M43,27 C42.5994588,26.9996461 42.2377361,26.7604276 42.0806222,26.3919868 C41.9235083,26.0235459 42.0012911,25.5969095 42.27832,25.30762 C48.5738932,18.7410987 48.5738932,8.37902133 42.27832,1.8125 L43.72168,0.42773 C49.8690316,6.84232184 50.7457737,16.6623052 45.832,24.06445 L48.70114,23.16602 L49.2988,25.07422 L43.2988,26.9541 C43.2021463,26.984646 43.1013655,27.0001273 43,27 Z" id="Path"></path>
                <polygon id="Path" points="10 46 10 41 0 50 10 59 10 55 27 55 27 46"></polygon>
                <polygon id="Path" points="60 39 50 30 50 34 33 34 33 43 50 43 50 48"></polygon>
                <rect id="Rectangle" x="31" y="54" width="9" height="2"></rect>
                <rect id="Rectangle" x="31" y="49" width="9" height="2"></rect>
                <rect id="Rectangle" x="42" y="49" width="2" height="2"></rect>
                <rect id="Rectangle" x="42" y="54" width="2" height="2"></rect>
                <rect id="Rectangle" x="20" y="33" width="9" height="2"></rect>
                <rect id="Rectangle" x="20" y="38" width="9" height="2"></rect>
                <rect id="Rectangle" x="16" y="38" width="2" height="2"></rect>
                <rect id="Rectangle" x="16" y="33" width="2" height="2"></rect>
            </g>
        </g>
    </g>
</svg>